<svg xmlns="http://www.w3.org/2000/svg" width="120" height="132" viewBox="0 0 120 132">
  <defs>
    <linearGradient id="blazeHead" x1="0" x2="0" y1="0" y2="1">
      <stop offset="0" stop-color="#ffd7ba" />
      <stop offset="1" stop-color="#f0b48d" />
    </linearGradient>
    <linearGradient id="blazeShirt" x1="0" x2="1" y1="0" y2="1">
      <stop offset="0" stop-color="#ff8b73" />
      <stop offset="1" stop-color="#d95449" />
    </linearGradient>
  </defs>
  <ellipse cx="60" cy="126" rx="22" ry="4" fill="#1c3a47" opacity=".22" />
  <path d="M26 40c4-18 18-28 34-28 18 0 31 11 34 29-4 2-7 2-10 1-2-8-8-12-16-12-15 0-28 12-42 10z" fill="#7a2b23" />
  <path d="M20 47c0-19 17-34 39-34s40 15 40 34-18 38-40 38S20 66 20 47z" fill="#173747" />
  <path d="M23 47c0-18 16-31 37-31s37 13 37 31-16 34-37 34S23 65 23 47z" fill="url(#blazeHead)" />
  <path d="M24 46c9 1 19-5 27-11 8-5 20-9 32-4 3 2 5 4 7 8-4-14-16-23-30-23-16 0-29 11-36 30z" fill="#7a2b23" />
  <ellipse cx="47" cy="49" rx="4" ry="5" fill="#183240" />
  <ellipse cx="71" cy="49" rx="4" ry="5" fill="#183240" />
  <path d="M52 62c3 5 12 5 16 0" fill="none" stroke="#b96755" stroke-linecap="round" stroke-width="3" />
  <circle cx="36" cy="57" r="4" fill="#f6bfab" opacity=".55" />
  <circle cx="82" cy="57" r="4" fill="#f6bfab" opacity=".55" />
  <path d="M46 83h28c8 0 13 5 13 12v19H33V95c0-7 5-12 13-12z" fill="#153747" />
  <path d="M48 84h24c8 0 13 4 13 11v17H35V95c0-7 5-11 13-11z" fill="url(#blazeShirt)" />
  <path d="M51 87h18v21H51z" fill="#ffd986" opacity=".95" />
  <circle cx="60" cy="98" r="7" fill="#fff5da" />
  <path d="M60 90l2 6h6l-5 4 2 6-5-4-5 4 2-6-5-4h6z" fill="#ffb84f" />
  <path d="M36 89c-5 3-8 8-8 16v6h8z" fill="#f7c8a1" />
  <path d="M84 89c5 3 8 8 8 16v6h-8z" fill="#f7c8a1" />
  <path d="M44 112h12v14H44z" fill="#173747" />
  <path d="M64 112h12v14H64z" fill="#173747" />
  <path d="M42 124h16v4H42z" fill="#f3d06a" />
  <path d="M62 124h16v4H62z" fill="#f3d06a" />
</svg>
