<svg xmlns="http://www.w3.org/2000/svg" width="120" height="132" viewBox="0 0 120 132">
  <defs>
    <linearGradient id="rippleHead" x1="0" x2="0" y1="0" y2="1">
      <stop offset="0" stop-color="#f9dcc6" />
      <stop offset="1" stop-color="#e0b69f" />
    </linearGradient>
    <linearGradient id="rippleShirt" x1="0" x2="1" y1="0" y2="1">
      <stop offset="0" stop-color="#d097ff" />
      <stop offset="1" stop-color="#6f64d9" />
    </linearGradient>
  </defs>
  <ellipse cx="60" cy="126" rx="22" ry="4" fill="#1c3a47" opacity=".22" />
  <path d="M20 47c0-18 18-33 40-33s40 15 40 33-18 37-40 37S20 65 20 47z" fill="#183747" />
  <path d="M24 47c0-17 16-30 36-30s36 13 36 30-16 34-36 34S24 64 24 47z" fill="url(#rippleHead)" />
  <path d="M24 42c8-15 20-25 34-25 16 0 28 6 38 23-5-3-10-4-15-4-8 0-14 3-21 7-11 7-20 9-36-1z" fill="#6e3e8b" />
  <path d="M29 39c6 8 12 11 19 11 11 0 20-8 30-8 6 0 11 1 15 5-2-12-15-24-35-24-12 0-23 5-29 16z" fill="#9d77e3" opacity=".82" />
  <ellipse cx="48" cy="50" rx="4" ry="5" fill="#173747" />
  <ellipse cx="72" cy="50" rx="4" ry="5" fill="#173747" />
  <path d="M53 62c4 4 11 5 15 0" fill="none" stroke="#ae7281" stroke-linecap="round" stroke-width="3" />
  <path d="M43 82h34c8 0 13 5 13 12v20H30V94c0-7 5-12 13-12z" fill="#163747" />
  <path d="M45 83h30c8 0 13 5 13 11v18H32V94c0-6 5-11 13-11z" fill="url(#rippleShirt)" />
  <path d="M49 87h22v23H49z" fill="#f3eeff" opacity=".95" />
  <path d="M46 103c8-8 18-8 28 0" fill="none" stroke="#62ddcf" stroke-linecap="round" stroke-width="4" />
  <path d="M49 97c7-6 15-6 22 0" fill="none" stroke="#62ddcf" stroke-linecap="round" stroke-width="3" opacity=".8" />
  <path d="M30 89c-5 3-7 8-8 15v8h10V89z" fill="#edc0a4" />
  <path d="M90 89c5 3 7 8 8 15v8H88V89z" fill="#edc0a4" />
  <path d="M45 112h12v14H45z" fill="#173747" />
  <path d="M63 112h12v14H63z" fill="#173747" />
  <path d="M43 124h16v4H43z" fill="#62ddcf" />
  <path d="M61 124h16v4H61z" fill="#62ddcf" />
</svg>
